<?xml version="1.0" encoding="UTF-8"?>
<svg width="926px" height="217px" viewBox="0 0 926 217" version="1.1" xmlns="http://www.w3.org/2000/svg" xmlns:xlink="http://www.w3.org/1999/xlink">
    <!-- Generator: Sketch 51.3 (57544) - http://www.bohemiancoding.com/sketch -->
    <title>LOGO MRHOME NUEVO (svg)</title>
    <desc>Created with Sketch.</desc>
    <defs></defs>
    <g id="Page-1" stroke="none" stroke-width="1" fill="none" fill-rule="evenodd">
        <g id="Artboard" transform="translate(-285.000000, -150.000000)" fill="#FFFFFF" fill-rule="nonzero">
            <g id="LOGO-MRHOME-NUEVO-(svg)" transform="translate(285.000000, 150.000000)">
                <g id="Group" transform="translate(409.000000, 179.000000)">
                    <path d="M9.897,25.847 L5.994,36.605 L0.956,36.605 L13.814,2.406 L19.619,2.406 L32.471,36.605 L27.293,36.605 L23.263,25.847 L9.897,25.847 Z M22.308,22.389 L18.563,12.549 C17.735,10.311 17.168,8.296 16.614,6.309 L16.505,6.309 C15.94,8.296 15.379,10.425 14.599,12.511 L10.904,22.389 L22.308,22.389 Z" id="Shape"></path>
                    <path d="M36.853,32.073 C38.341,32.891 40.919,33.804 43.396,33.804 C46.911,33.804 48.572,32.224 48.572,30.133 C48.572,28.028 47.174,26.892 43.605,25.681 C38.689,24.063 36.39,21.674 36.39,18.746 C36.39,14.791 39.979,11.546 45.719,11.546 C48.47,11.546 50.866,12.208 52.316,13.074 L51.152,16.3 C50.09,15.713 48.141,14.824 45.614,14.824 C42.712,14.824 41.134,16.357 41.134,18.192 C41.134,20.198 42.712,21.116 46.234,22.389 C50.865,23.969 53.33,26.088 53.33,29.745 C53.33,34.107 49.588,37.153 43.258,37.153 C40.308,37.153 37.577,36.434 35.675,35.422 L36.853,32.073 Z" id="Shape"></path>
                    <path d="M62.373,25.128 C62.501,31.174 66.678,33.653 71.671,33.653 C75.17,33.653 77.372,33.1 79.16,32.376 L80.035,35.565 C78.318,36.284 75.295,37.154 70.997,37.154 C62.661,37.154 57.691,32.13 57.691,24.726 C57.691,17.322 62.5,11.546 70.375,11.546 C79.259,11.546 81.559,18.524 81.559,23.046 C81.559,23.968 81.497,24.635 81.379,25.128 L62.373,25.128 Z M76.819,21.94 C76.864,19.139 75.511,14.74 69.997,14.74 C64.954,14.74 62.844,18.856 62.447,21.94 L76.819,21.94 Z" id="Shape"></path>
                    <path d="M86.981,32.073 C88.488,32.891 91.068,33.804 93.529,33.804 C97.039,33.804 98.716,32.224 98.716,30.133 C98.716,28.028 97.33,26.892 93.753,25.681 C88.826,24.063 86.532,21.674 86.532,18.746 C86.532,14.791 90.113,11.546 95.864,11.546 C98.601,11.546 101.004,12.208 102.463,13.074 L101.295,16.3 C100.228,15.713 98.274,14.824 95.762,14.824 C92.848,14.824 91.303,16.357 91.303,18.192 C91.303,20.198 92.847,21.116 96.372,22.389 C101.003,23.969 103.468,26.088 103.468,29.745 C103.468,34.107 99.709,37.153 93.417,37.153 C90.448,37.153 87.712,36.434 85.798,35.422 L86.981,32.073 Z" id="Shape"></path>
                    <path d="M134.263,24.111 C134.263,33.199 127.274,37.154 120.8,37.154 C113.545,37.154 107.816,32.286 107.816,24.523 C107.816,16.357 113.824,11.546 121.254,11.546 C129.019,11.546 134.263,16.656 134.263,24.111 Z M112.872,24.371 C112.872,29.745 116.217,33.804 121.009,33.804 C125.728,33.804 129.231,29.788 129.231,24.266 C129.231,20.117 126.927,14.885 121.139,14.885 C115.38,14.886 112.872,19.754 112.872,24.371 Z" id="Shape"></path>
                    <path d="M140.477,19.716 C140.477,16.821 140.418,14.347 140.25,12.052 L144.56,12.052 L144.782,16.901 L144.957,16.901 C146.177,13.632 149.21,11.546 152.491,11.546 C153.009,11.546 153.39,11.589 153.844,11.645 L153.844,15.85 C153.34,15.741 152.822,15.741 152.153,15.741 C148.695,15.741 146.237,18.078 145.549,21.408 C145.44,22.042 145.398,22.79 145.398,23.504 L145.398,36.604 L140.478,36.604 L140.478,19.716 L140.477,19.716 Z" id="Shape"></path>
                    <path d="M160.94,25.128 C161.042,31.174 165.245,33.653 170.203,33.653 C173.716,33.653 175.918,33.1 177.703,32.376 L178.588,35.565 C176.871,36.284 173.841,37.154 169.545,37.154 C161.216,37.154 156.237,32.13 156.237,24.726 C156.237,17.322 161.041,11.546 168.93,11.546 C177.802,11.546 180.111,18.524 180.111,23.046 C180.111,23.968 180.047,24.635 179.934,25.128 L160.94,25.128 Z M175.348,21.94 C175.417,19.139 174.075,14.74 168.54,14.74 C163.511,14.74 161.373,18.856 160.976,21.94 L175.348,21.94 Z" id="Shape"></path>
                    <path d="M185.535,32.073 C187.032,32.891 189.597,33.804 192.052,33.804 C195.61,33.804 197.278,32.224 197.278,30.133 C197.278,28.028 195.868,26.892 192.289,25.681 C187.373,24.063 185.079,21.674 185.079,18.746 C185.079,14.791 188.656,11.546 194.432,11.546 C197.147,11.546 199.574,12.208 201.01,13.074 L199.832,16.3 C198.793,15.713 196.821,14.824 194.313,14.824 C191.399,14.824 189.829,16.357 189.829,18.192 C189.829,20.198 191.4,21.116 194.924,22.389 C199.575,23.969 202.016,26.088 202.016,29.745 C202.016,34.107 198.276,37.153 191.972,37.153 C188.978,37.153 186.258,36.434 184.346,35.422 L185.535,32.073 Z" id="Shape"></path>
                    <polygon id="Shape" points="225.217 2.406 225.217 36.605 220.295 36.605 220.295 2.406"></polygon>
                    <path d="M234.099,18.685 C234.099,16.116 234.052,14.087 233.884,12.053 L238.241,12.053 L238.513,16.116 L238.629,16.116 C239.97,13.817 243.107,11.546 247.573,11.546 C251.315,11.546 257.134,13.57 257.134,21.991 L257.134,36.604 L252.214,36.604 L252.214,22.435 C252.214,18.475 250.587,15.197 245.965,15.197 C242.778,15.197 240.25,17.274 239.356,19.753 C239.134,20.311 239.034,21.087 239.034,21.83 L239.034,36.604 L234.099,36.604 L234.099,18.685 Z" id="Shape"></path>
                    <path d="M265.117,18.685 C265.117,16.116 265.01,14.087 264.897,12.053 L269.209,12.053 L269.443,16.06 L269.599,16.06 C271.127,13.718 273.622,11.547 278.147,11.547 C281.766,11.547 284.576,13.571 285.745,16.462 L285.866,16.462 C286.703,15.043 287.829,14.021 288.938,13.264 C290.556,12.133 292.288,11.547 294.854,11.547 C298.48,11.547 303.793,13.666 303.793,22.206 L303.793,36.606 L299,36.606 L299,22.745 C299,17.971 297.041,15.199 293.124,15.199 C290.276,15.199 288.159,17.053 287.26,19.197 C287.049,19.85 286.857,20.635 286.857,21.411 L286.857,36.606 L282.063,36.606 L282.063,21.879 C282.063,17.971 280.166,15.199 276.417,15.199 C273.408,15.199 271.125,17.423 270.326,19.641 C270.044,20.265 269.923,21.088 269.923,21.831 L269.923,36.605 L265.115,36.605 L265.115,18.685 L265.117,18.685 Z" id="Shape"></path>
                    <path d="M336.221,24.111 C336.221,33.199 329.238,37.154 322.755,37.154 C315.488,37.154 309.79,32.286 309.79,24.523 C309.79,16.357 315.777,11.546 323.209,11.546 C330.98,11.546 336.221,16.656 336.221,24.111 Z M314.819,24.371 C314.819,29.745 318.173,33.804 322.985,33.804 C327.678,33.804 331.195,29.788 331.195,24.266 C331.195,20.117 328.898,14.885 323.086,14.885 C317.34,14.886 314.819,19.754 314.819,24.371 Z" id="Shape"></path>
                    <path d="M342.43,0.585 L347.296,0.585 L347.296,16.003 L347.41,16.003 C349.151,13.264 352.261,11.547 356.637,11.547 C363.385,11.547 368.09,16.614 368.09,24.017 C368.09,32.788 361.945,37.154 355.922,37.154 C352.005,37.154 348.857,35.777 346.791,32.594 L346.668,32.594 L346.399,36.606 L342.212,36.606 C342.335,34.922 342.429,32.429 342.429,30.253 L342.429,0.585 L342.43,0.585 Z M347.296,26.742 C347.296,27.305 347.346,27.854 347.516,28.374 C348.403,31.477 351.329,33.588 354.896,33.588 C360.093,33.588 363.128,29.789 363.128,24.159 C363.128,19.253 360.337,15.043 355.017,15.043 C351.715,15.043 348.59,17.172 347.578,20.512 C347.41,21.089 347.297,21.676 347.297,22.39 L347.297,26.742 L347.296,26.742 Z" id="Shape"></path>
                    <path d="M379.709,5.136 C379.709,6.678 378.542,7.899 376.596,7.899 C374.801,7.899 373.625,6.679 373.625,5.136 C373.625,3.622 374.867,2.368 376.705,2.368 C378.489,2.368 379.709,3.575 379.709,5.136 Z M374.245,36.605 L374.245,12.052 L379.161,12.052 L379.161,36.605 L374.245,36.605 Z" id="Shape"></path>
                    <polygon id="Shape" points="387.317 0.585 392.232 0.585 392.232 36.605 387.317 36.605"></polygon>
                    <path d="M405.998,5.136 C405.998,6.678 404.822,7.899 402.861,7.899 C401.064,7.899 399.893,6.679 399.893,5.136 C399.893,3.622 401.125,2.368 402.968,2.368 C404.752,2.368 405.998,3.575 405.998,5.136 Z M400.506,36.605 L400.506,12.052 L405.428,12.052 L405.428,36.605 L400.506,36.605 Z" id="Shape"></path>
                    <path d="M432.607,30.711 C432.607,32.845 432.723,34.922 432.978,36.606 L428.562,36.606 L428.172,33.493 L428.006,33.493 C426.497,35.423 423.592,37.155 419.751,37.155 C414.266,37.155 411.474,33.654 411.474,30.106 C411.474,24.16 417.291,20.928 427.727,20.961 L427.727,20.455 C427.727,18.478 427.105,14.792 421.581,14.825 C419.003,14.825 416.377,15.487 414.485,16.656 L413.364,13.666 C415.602,12.393 418.904,11.547 422.31,11.547 C430.584,11.547 432.607,16.656 432.607,21.534 L432.607,30.711 Z M427.833,24.064 C422.476,23.969 416.378,24.816 416.378,29.594 C416.378,32.541 418.521,33.852 420.957,33.852 C424.543,33.852 426.833,31.822 427.628,29.745 C427.784,29.234 427.833,28.723 427.833,28.321 L427.833,24.064 Z" id="Shape"></path>
                    <path d="M440.541,19.716 C440.541,16.821 440.475,14.347 440.311,12.052 L444.616,12.052 L444.838,16.901 L445.015,16.901 C446.238,13.632 449.235,11.546 452.554,11.546 C453.058,11.546 453.448,11.589 453.881,11.645 L453.881,15.85 C453.396,15.741 452.892,15.741 452.211,15.741 C448.76,15.741 446.281,18.078 445.618,21.408 C445.514,22.042 445.443,22.79 445.443,23.504 L445.443,36.604 L440.54,36.604 L440.54,19.716 L440.541,19.716 Z" id="Shape"></path>
                    <path d="M464.511,5.136 C464.511,6.678 463.335,7.899 461.377,7.899 C459.607,7.899 458.42,6.679 458.42,5.136 C458.42,3.622 459.641,2.368 461.495,2.368 C463.284,2.368 464.511,3.575 464.511,5.136 Z M459.04,36.605 L459.04,12.052 L463.946,12.052 L463.946,36.605 L459.04,36.605 Z" id="Shape"></path>
                    <path d="M494.413,24.111 C494.413,33.199 487.442,37.154 480.944,37.154 C473.67,37.154 467.972,32.286 467.972,24.523 C467.972,16.357 473.947,11.546 481.398,11.546 C489.156,11.546 494.413,16.656 494.413,24.111 Z M472.996,24.371 C472.996,29.745 476.334,33.804 481.176,33.804 C485.861,33.804 489.379,29.788 489.379,24.266 C489.379,20.117 487.075,14.885 481.263,14.885 C475.525,14.886 472.996,19.754 472.996,24.371 Z" id="Shape"></path>
                    <path d="M499.94,32.073 C501.466,32.891 504.023,33.804 506.488,33.804 C509.998,33.804 511.682,32.224 511.682,30.133 C511.682,28.028 510.28,26.892 506.729,25.681 C501.797,24.063 499.505,21.674 499.505,18.746 C499.505,14.791 503.069,11.546 508.817,11.546 C511.558,11.546 513.964,12.208 515.431,13.074 L514.262,16.3 C513.189,15.713 511.246,14.824 508.704,14.824 C505.806,14.824 504.25,16.357 504.25,18.192 C504.25,20.198 505.806,21.116 509.348,22.389 C513.965,23.969 516.423,26.088 516.423,29.745 C516.423,34.107 512.684,37.153 506.368,37.153 C503.406,37.153 500.672,36.434 498.76,35.422 L499.94,32.073 Z" id="Shape"></path>
                </g>
                <path d="M524.605,162.595 C522.139,162.595 519.961,160.712 519.961,158.574 L519.961,90.229 L431.826,90.229 L431.826,158.574 C431.826,160.713 429.66,162.595 427.2,162.595 L416.07,162.595 C413.579,162.595 411.424,160.712 411.424,158.574 L411.424,5.427 C411.424,3.302 413.579,1.432 416.07,1.432 L427.2,1.432 C429.66,1.432 431.826,3.302 431.826,5.427 L431.826,73.652 L519.961,73.652 L519.961,5.427 C519.961,3.302 522.139,1.432 524.605,1.432 L535.729,1.432 C538.198,1.432 540.375,3.302 540.375,5.427 L540.375,158.574 C540.375,160.713 538.197,162.595 535.729,162.595 L524.605,162.595 Z" id="Shape"></path>
                <path d="M644.752,150.317 C633.702,161.886 619.236,167.575 601.761,167.575 C566.266,167.575 542.142,141.787 542.142,106.727 C542.142,71.677 566.241,45.769 601.761,45.769 C619.256,45.769 633.768,51.545 644.925,63.246 C655.817,74.687 661.159,89.295 661.159,106.726 C661.161,124.182 655.761,138.817 644.752,150.317 Z M631.877,75.283 C624.539,67.187 614.663,63.018 601.762,63.018 C588.87,63.018 578.912,67.178 571.411,75.306 C564.226,83.209 560.499,93.52 560.499,106.677 C560.499,119.802 564.226,130.14 571.416,138.034 C578.825,146.162 588.783,150.317 601.762,150.317 C614.479,150.317 624.337,146.134 631.765,137.938 C639.046,129.865 642.799,119.559 642.799,106.677 C642.798,93.611 639.082,83.278 631.877,75.283 Z" id="Shape"></path>
                <path d="M808.456,167.009 C806.243,167.009 804.291,165.023 804.291,162.767 L804.291,92.025 C804.291,83.165 801.852,76.333 797.282,71.135 C792.557,65.746 786.218,62.939 777.78,62.939 C769.272,62.939 762.883,65.747 758.181,71.135 C753.603,76.333 751.172,83.165 751.172,92.025 L751.172,162.767 C751.172,165.023 749.223,167.009 747.001,167.009 L737.818,167.009 C735.599,167.009 733.656,165.023 733.656,162.767 L733.656,92.025 C733.656,83.16 731.233,76.319 726.7,71.116 C722.043,65.727 715.762,62.938 707.426,62.938 C699.541,62.938 693.406,65.583 688.644,70.754 C684.896,74.82 682.546,79.795 681.649,85.801 L681.649,162.767 C681.649,165.023 679.7,167.009 677.477,167.009 L667.471,167.009 C665.249,167.009 663.306,165.023 663.306,162.767 L663.306,94.749 L663.306,91.811 L663.306,88.882 L663.306,51.654 C663.306,49.403 665.249,47.431 667.471,47.431 L677.477,47.431 C679.699,47.431 681.649,49.403 681.649,51.654 L681.649,53.241 C688.855,48.01 697.71,45.453 707.974,45.453 C722.502,45.453 734.154,51.649 742.725,63.544 C751.541,51.667 763.163,45.453 777.455,45.453 C791.479,45.453 802.829,50.108 810.92,59.799 C818.499,68.784 822.077,80.615 822.077,94.799 L822.077,162.765 C822.077,165.021 820.118,167.007 817.908,167.007 L808.456,167.007 L808.456,167.009 Z" id="Shape"></path>
                <path d="M923.136,110.298 C922.738,111.675 920.555,113.341 919.123,113.341 L823.87,113.341 C826.804,135.939 842.921,149.751 865.781,149.751 C872.344,149.751 879.064,148.671 885.942,146.465 C893.683,144.035 899.186,140.822 902.765,137.051 C907.353,132.242 920.505,144.694 915.808,149.504 C904.191,161.398 887.279,167.008 865.813,167.008 C829.834,167.008 805.121,142.085 805.121,106.16 C805.121,71.128 829.184,45.202 864.701,45.202 C898.946,45.202 923.856,69.915 923.856,104.201 C923.855,106.404 923.64,108.454 923.136,110.298 Z M892.827,72.913 C885.605,66.003 876.315,62.451 864.602,62.451 C843.427,62.451 827.838,75.37 824.08,96.092 L904.895,96.092 C903.188,86.601 899.128,78.95 892.827,72.913 Z" id="Shape"></path>
                <path d="M145.481,46.774 L74.448,3.485 C64.95,-2.309 52.491,0.713 46.687,10.197 L3.261,81.161 C-1.412,88.814 1.707,96.283 6.392,103.775 L40.607,159.31 C45.091,164.877 63.606,164.116 84.106,160.133 L74.22,144.089 C72.808,141.819 71.86,139.577 73.276,137.245 L86.409,115.785 C88.176,112.919 91.934,112.001 94.805,113.751 L116.298,126.853 C119.181,128.613 118.795,131.933 118.332,135.249 L117.379,151.274 C133.553,145.697 146.45,139.047 148.72,133.172 L152.194,74.52 C153.727,63.58 154.993,52.563 145.481,46.774 Z" id="Shape"></path>
                <g id="Group" transform="translate(164.000000, 1.000000)">
                    <path d="M241.391,151.268 C241.391,156.961 238.616,159.816 233.067,159.816 C227.454,159.816 224.621,156.961 224.621,151.268 C224.621,145.779 227.454,143.046 233.067,143.046 C238.616,143.046 241.391,145.78 241.391,151.268 Z" id="Shape"></path>
                    <path d="M135.853,159.538 L126.123,159.538 L126.123,12.691 C126.123,10.348 125.27,9.172 123.57,9.172 C122.259,9.172 121.212,10.348 120.437,12.691 L81,145.545 C78.212,155.06 73.923,159.816 68.116,159.816 C62.306,159.816 58.021,155.069 55.229,145.593 L15.777,12.691 C15.014,10.348 13.966,9.172 12.649,9.172 C10.953,9.172 10.096,10.348 10.096,12.686 L10.096,159.815 L0.371,159.816 L0.371,12.951 C0.371,4.659 4.428,0.507 12.548,0.507 C18.915,0.507 23.122,4.021 25.172,11.068 L65.309,146.226 C66.068,148.63 67.01,149.836 68.155,149.836 C69.224,149.836 70.123,148.682 70.886,146.356 L111.047,11.068 C113.175,4.022 117.471,0.507 123.956,0.507 C131.894,0.507 135.853,4.629 135.853,12.851 L135.853,159.538 Z" id="Shape"></path>
                    <path d="M203.102,105.77 C201.307,107.388 199.234,108.811 196.895,110.074 L215.503,159.803 L205.499,159.816 L188.095,113.281 C184.01,114.305 179.461,114.813 174.462,114.813 L153.344,114.813 L153.344,159.804 L143.777,159.804 L143.777,58.979 C143.777,54.011 145.623,50.067 149.398,47.416 C152.227,45.429 155.462,44.435 159.024,44.435 L179.847,44.435 C200.897,44.435 214.901,58.359 214.901,79.437 C214.902,89.976 210.962,98.776 203.102,105.77 Z M198.234,60.419 C193.802,55.672 187.719,53.243 179.804,53.243 L158.407,53.243 C154.838,53.807 153.345,55.573 153.345,58.688 L153.345,105.826 L176.923,105.826 C185.503,105.826 192.205,103.522 197.147,99.057 C202.319,94.423 204.959,87.967 204.959,79.523 C204.959,71.527 202.688,65.197 198.234,60.419 Z" id="Shape"></path>
                </g>
            </g>
        </g>
    </g>
</svg>